<?xml version="1.0" encoding="UTF-8"?>
<svg id="Layer_1" data-name="Layer 1" xmlns="http://www.w3.org/2000/svg" viewBox="0 0 1053.95 209">
  <defs>
    <style>
      .cls-1 {
        fill: #be202e;
      }

      .cls-1, .cls-2, .cls-3, .cls-4, .cls-5, .cls-6, .cls-7, .cls-8, .cls-9, .cls-10, .cls-11, .cls-12, .cls-13, .cls-14 {
        stroke-width: 0px;
      }

      .cls-2 {
        fill: #59ba5d;
      }

      .cls-3 {
        fill: #030303;
      }

      .cls-4 {
        fill: #ee4024;
      }

      .cls-5 {
        fill: #104872;
      }

      .cls-6 {
        fill: #226eae;
      }

      .cls-7 {
        fill: #5eacd4;
      }

      .cls-8 {
        fill: #28a8e0;
      }

      .cls-9 {
        fill: #a09f9f;
      }

      .cls-10 {
        fill: #1f6eae;
      }

      .cls-11 {
        fill: #040403;
      }

      .cls-12 {
        fill: #4aae6d;
      }

      .cls-13 {
        fill: #d5232c;
      }

      .cls-14 {
        fill: #020303;
      }
    </style>
  </defs>
  <path class="cls-7" d="M204.88,141.74c-.17-.18-.35-.37-.52-.55,1.18-3.59,2.37-7.18,3.55-10.77-.51,3.91-1.53,7.68-3.03,11.33h0Z"/>
  <path class="cls-3" d="M432.67,68.91c.67-3.76,1.32-7.43,1.99-11.2h23.01c-.66,3.77-1.29,7.42-1.95,11.2h-23.04Z"/>
  <path class="cls-3" d="M925.03,57.7h23.03c-.67,3.81-1.32,7.47-1.98,11.23h-23.02c.65-3.7,1.28-7.35,1.96-11.23Z"/>
  <path class="cls-3" d="M880.35,68.98h-23.02c.67-3.8,1.32-7.49,1.98-11.29h23.01c-.67,3.8-1.31,7.46-1.98,11.29Z"/>
  <path class="cls-14" d="M776.89,68.97c.68-3.85,1.32-7.53,1.99-11.29h22.99c-.66,3.81-1.3,7.52-1.96,11.29h-23.02Z"/>
  <path class="cls-14" d="M299.56,68.99h-23.01c.66-3.8,1.3-7.51,1.95-11.31h23c-.65,3.79-1.29,7.51-1.94,11.31Z"/>
  <path class="cls-3" d="M500.27,146.28h-21.68c.54-3.1,1.05-6.1,1.58-9.09,2.62-14.84,5.24-29.68,7.84-44.52.27-1.55.45-3.12.53-4.69.12-2.77-1.84-3.93-4.33-2.59-1.49.81-2.32,2.12-2.63,3.74-.71,3.68-1.4,7.36-2.06,11.05-2.36,13.21-4.69,26.42-7.05,39.64-.38,2.13-.76,4.26-1.16,6.44h-21.68c4.31-24.3,8.6-48.48,12.91-72.76h22.02c-.44,2.02-.86,4.02-1.29,6.02.15.13.29.26.44.39.6-.77,1.1-1.63,1.79-2.28,4.37-4.18,9.57-6.19,15.67-5.44,4.26.52,7.42,2.77,9.53,6.47.26.45.5.9.95,1.72.78-.91,1.41-1.76,2.16-2.48,4.03-3.85,8.72-6.17,14.44-5.83,1.56.09,3.16.39,4.64.89,4.26,1.46,7.05,5.11,6.84,9.57-.21,4.48-.75,8.96-1.5,13.39-2.27,13.38-4.7,26.72-7.07,40.09-.6,3.39-1.23,6.78-1.85,10.26h-21.66c.65-3.75,1.26-7.43,1.92-11.09,2.48-14.03,4.97-28.05,7.42-42.08.29-1.69.41-3.42.52-5.14.08-1.17-.12-2.37-1.4-2.8-1.34-.46-2.81-.4-3.75.79-.72.91-1.3,2.05-1.56,3.18-.99,4.38-1.92,8.78-2.72,13.21-2.63,14.6-5.2,29.22-7.82,43.96h0Z"/>
  <path class="cls-14" d="M637.61,57.53h33.64c-.79,29.61-1.6,59.12-2.39,88.72h-23.78c.5-5.24.99-10.41,1.5-15.71h-8.31c-1.38,5.14-2.79,10.39-4.21,15.72h-24.07c9.21-29.58,18.38-59.08,27.61-88.73h0ZM650.96,80.18c-3.56,11.35-7.14,22.69-10.15,34.31h7.94c.96-11.37,1.91-22.58,2.85-33.79.07-.71.14-1.43.21-2.14-.13,0-.27-.02-.41-.03-.15.55-.29,1.09-.44,1.64h0Z"/>
  <path class="cls-3" d="M996.97,111.21h-28.95c-.53,2.88-1.04,5.59-1.51,8.3-.6,3.47-1.17,6.95-1.75,10.43-.08.44-.15.89-.16,1.33-.03,1.27-.19,2.62,1.28,3.32,1.32.63,3.62.2,4.58-1.02.63-.8,1.18-1.79,1.42-2.76.8-3.35,1.46-6.73,2.15-10.11.31-1.52.58-3.07.87-4.61h21.11c-.93,5.68-1.4,11.38-4,16.41-4.23,8.23-10.93,13.44-20.35,14.75-5.59.78-11.14.67-16.59-.96-6.09-1.82-10.25-5.59-11.69-11.91-.73-3.2-.55-6.46-.02-9.63,1.66-9.98,3.46-19.94,5.32-29.88.41-2.19,1.17-4.34,1.96-6.44,2.68-7.1,7.7-11.9,14.89-14.41,7.11-2.48,14.35-2.76,21.59-.7,7.53,2.14,11.77,7.12,12.4,14.81.26,3.25,0,6.6-.38,9.85-.51,4.32-1.39,8.59-2.16,13.2h0ZM976.64,99.24c.5-2.87,1.01-5.52,1.41-8.18.2-1.33.24-2.69.25-4.03,0-.86-.29-1.63-1.23-1.97-1.69-.61-3.76.15-4.34,1.82-1.36,3.97-1.86,8.12-2.58,12.36h6.49Z"/>
  <path class="cls-3" d="M571.69,116.13h21.17c-.86,5.1-1.34,10.17-3.33,14.78-3.85,8.96-10.63,14.61-20.43,16.27-5.72.96-11.44.85-17.05-.83-8.2-2.46-12.5-8.01-12.18-16.49.17-4.62,1-9.23,1.76-13.81,1.1-6.73,2.32-13.45,3.64-20.14.47-2.42,1.24-4.8,2.07-7.11,2.77-7.65,8.18-12.61,15.94-15.07,6.88-2.18,13.82-2.37,20.74-.37,7.95,2.29,12.24,8.02,12.5,16.22.16,5.14-.72,10.17-1.62,15.19-.38,2.12-.77,4.24-1.18,6.45h-28.85c-.48,2.55-.96,5.02-1.41,7.5-.59,3.25-1.18,6.5-1.67,9.75-.22,1.4-.29,2.84-.26,4.26.04,1.33.62,1.83,1.95,2.07,2.13.38,4.05-.58,4.81-2.82.81-2.4,1.35-4.91,1.87-7.39.59-2.77,1.02-5.58,1.53-8.44h.02ZM573.6,99.21c.53-3.89,1.16-7.71,1.53-11.55.21-2.21-.83-2.93-3.03-2.69-1.35.15-2.32.83-2.62,2.1-.93,3.97-1.77,7.96-2.68,12.15h6.81-.01Z"/>
  <path class="cls-3" d="M382.95,111.27h-28.89c-.79,4.44-1.6,8.77-2.33,13.12-.39,2.28-.75,4.59-.97,6.9-.13,1.31-.34,2.79,1.42,3.39,1.58.55,3.72-.04,4.65-1.44.57-.86,1.04-1.85,1.26-2.86.8-3.58,1.49-7.18,2.21-10.79.22-1.1.4-2.2.62-3.44h21.2c-1.46,7.01-1.84,14.18-6.33,20.2-5.24,7.03-12.22,10.75-20.95,11.28-4.62.28-9.21.09-13.68-1.29-8.05-2.48-12.36-8.03-12.06-16.37.17-4.69,1.01-9.38,1.77-14.04,1.1-6.73,2.31-13.45,3.65-20.14.49-2.48,1.3-4.93,2.18-7.32,2.63-7.14,7.68-11.91,14.85-14.43,7.19-2.53,14.51-2.78,21.81-.66,7.83,2.29,12.1,8.01,12.37,16.09.18,5.14-.7,10.17-1.59,15.19-.38,2.14-.78,4.28-1.21,6.6h.02ZM356.03,99.25h6.78c.53-3.86,1.09-7.68,1.57-11.52.13-1.06-.04-2.13-1.21-2.64-1.04-.46-3.09-.08-3.78.77-.37.45-.7,1.01-.82,1.56-.86,3.85-1.66,7.69-2.54,11.82h0Z"/>
  <path class="cls-11" d="M1001.36,120.77h19.7c-.46,3.19-.92,6.3-1.34,9.41-.09.73-.11,1.5-.04,2.25.16,1.68.92,2.36,2.64,2.44,2.25.1,3.78-.83,4.54-2.95.89-2.49,1.24-5.09,1.25-7.74,0-1.33-.5-2.3-1.6-3.02-3.03-1.97-6.07-3.94-9.06-5.95-2.37-1.6-4.72-3.22-7.03-4.91-4.14-3.04-5.66-7.26-5.36-12.22.24-4.36,1.15-8.61,2.65-12.72,1.74-4.76,4.96-8.14,9.59-10.25,6.21-2.82,12.75-3.46,19.46-2.9,3.4.29,6.72.97,9.8,2.51,1.97.99,3.68,2.29,5.09,4.02,2.32,2.88,2.58,6.16,2.09,9.59-.38,2.67-.88,5.32-1.32,7.94-1.66.44-16.59.57-19.81.17.34-2.13.7-4.24,1-6.38.14-1.03.22-2.09.24-3.13.03-1.17-.64-1.75-1.77-1.94-2.18-.37-3.95.42-4.83,2.44-1.04,2.38-1.35,4.93-1.05,7.49.1.82.66,1.7,1.24,2.32.92.98,1.96,1.89,3.09,2.6,2.29,1.45,4.69,2.71,7,4.12,2.3,1.41,4.61,2.85,6.82,4.41,4.06,2.87,5.56,6.97,5.26,11.77-.29,4.51-1.25,8.9-2.76,13.17-2.39,6.78-7.33,10.87-14.08,12.85-7.18,2.11-14.44,2.15-21.67.15-1.72-.48-3.4-1.23-4.98-2.09-4.05-2.19-6.05-5.68-6.22-10.26-.17-4.46.62-8.79,1.48-13.22h-.02Z"/>
  <path class="cls-3" d="M729.63,100.81h-21c.46-2.72.93-5.33,1.35-7.96.26-1.63.52-3.26.59-4.91.08-1.83-.54-2.67-1.82-2.93-1.67-.35-3.16.2-3.76,1.75-.67,1.74-1.15,3.56-1.49,5.4-2.11,11.65-4.17,23.31-6.2,34.97-.26,1.53-.26,3.14-.23,4.7.04,1.33.54,2.5,2.03,2.91,1.38.37,2.96-.11,3.77-1.41.62-1,1.15-2.13,1.42-3.27.71-2.99,1.26-6.01,1.85-9.02.29-1.47.55-2.93.83-4.47h19.86c-.87,4.85-1.47,9.66-3.35,14.06-3.97,9.27-10.89,15.1-21.11,16.64-4.98.75-9.94.68-14.84-.48-7.58-1.79-11.88-6.99-12.24-14.7-.23-4.98.47-9.87,1.36-14.75,1.39-7.59,2.67-15.2,4.15-22.77.5-2.56,1.38-5.06,2.25-7.52,1.12-3.19,3.12-5.82,5.78-7.91,8.95-7.01,18.97-8.68,29.86-5.8,2.5.66,4.72,1.94,6.73,3.57,3.27,2.67,5.02,6.08,5.25,10.31.25,4.52-.18,8.99-1.07,13.59h.02Z"/>
  <path class="cls-3" d="M819.96,122.93c2.41-9.13,4.82-18.26,7.23-27.39,1.84-6.96,3.68-13.92,5.52-20.87.1-.36.26-.71.42-1.17h19.84c-7.76,24.22-15.51,48.39-23.3,72.71h-29.22c.58-24.12,1.14-48.31,1.72-72.67h19.91c-.98,16.43-1.96,32.87-2.95,49.31-.07.89-.12,1.79-.19,2.68.15.02.3.05.45.07.19-.89.38-1.79.56-2.67h.01Z"/>
  <path class="cls-14" d="M246.49,128.63h14.16c-1.08,6.04-2.11,11.84-3.14,17.63h-37.47c5.25-29.61,10.48-59.09,15.74-88.7h23.3c-4.19,23.69-8.38,47.25-12.59,71.06h0Z"/>
  <path class="cls-3" d="M334.4,75.09c-.73,4.09-1.39,7.77-2.09,11.66h-5.28c-3.55,19.98-7.06,39.74-10.57,59.54h-22.37c3.51-19.81,7.01-39.53,10.53-59.45-1.52-.07-2.92-.13-4.53-.21.67-3.84,1.33-7.56,2-11.4h4.52c.46-2.2.87-4.31,1.36-6.39,1.55-6.45,5.07-9.89,11.72-10.72,4.55-.56,9.18-.49,13.77-.68,1.27-.05,2.53,0,4.02,0-.67,3.86-1.29,7.44-1.96,11.19-1.82.08-3.53.13-5.24.21-3.59.17-4.29.78-4.93,4.25-.1.58-.23,1.18-.38,2h9.41Z"/>
  <path class="cls-3" d="M395.63,86.71h-4.78c.7-3.97,1.35-7.7,2.02-11.54h4.78c.7-3.83,1.38-7.55,2.08-11.34h22.36c-.64,3.75-1.26,7.4-1.94,11.29h5.99c-.7,3.94-1.35,7.62-2.04,11.5h-5.97c-.54,2.88-1.06,5.58-1.54,8.28-1.92,10.85-3.84,21.7-5.73,32.55-.28,1.63-.42,3.27-.61,4.91-.14,1.18.35,1.87,1.59,1.98,1.49.13,2.99.28,4.66.43-.66,3.76-1.31,7.49-1.96,11.26-.2.1-.4.28-.59.28-6.03-.12-12.07-.15-18.1-.44-5.2-.25-9.49-4.7-8.49-10.51,1.41-8.2,2.66-16.42,4.05-24.63,1.34-7.91,2.78-15.79,4.23-24.03Z"/>
  <path class="cls-3" d="M758.94,146.38c-6.5-.15-12.84.34-19.15-.52-5.15-.71-8.88-5-7.98-10.34,1.38-8.2,2.64-16.43,4.03-24.63,1.35-7.97,2.81-15.92,4.26-24.09h-4.66c.38-3.99,1.28-7.65,1.92-11.58h4.79c.7-3.86,1.36-7.54,2.05-11.33h22.38c-.64,3.74-1.28,7.41-1.94,11.25h5.98c-.69,3.92-1.34,7.64-2.03,11.55h-5.99c-.68,3.7-1.33,7.21-1.96,10.73-1.78,10.03-3.55,20.08-5.31,30.12-.24,1.33-.41,2.67-.55,4.02-.23,2.35.07,2.71,2.5,2.97,1.19.13,2.4.14,3.72.21-.68,3.86-1.34,7.6-2.06,11.66h0Z"/>
  <path class="cls-3" d="M886.08,86.69h-4.79c.7-3.97,1.35-7.7,2.03-11.54h4.78c.7-3.83,1.38-7.56,2.08-11.34h22.36c-.65,3.77-1.28,7.43-1.95,11.32h5.99c-.7,3.93-1.35,7.62-2.04,11.5h-5.97c-.54,2.89-1.06,5.59-1.53,8.29-1.92,10.85-3.85,21.7-5.73,32.56-.28,1.63-.41,3.27-.6,4.91-.14,1.2.4,1.85,1.61,1.96,1.49.13,2.98.27,4.64.42-.66,3.78-1.32,7.52-1.96,11.22-.17.12-.28.29-.4.28-6.19-.12-12.36-.22-18.55-.41-1.84-.06-3.52-.8-4.98-1.94-2.57-2.02-3.76-4.67-3.32-7.92.69-4.97,1.4-9.95,2.26-14.9,1.96-11.37,4.02-22.73,6.1-34.43h-.02Z"/>
  <path class="cls-3" d="M785.88,146.27h-23.04c4.31-24.29,8.6-48.47,12.91-72.76h23.04c-4.31,24.27-8.59,48.46-12.91,72.76Z"/>
  <path class="cls-3" d="M298.38,73.52c-4.31,24.26-8.6,48.46-12.9,72.74h-23.04c4.31-24.27,8.6-48.45,12.9-72.74h23.04Z"/>
  <path class="cls-3" d="M921.93,73.48h23.04c-4.32,24.31-8.6,48.5-12.91,72.78h-23.04c4.31-24.3,8.6-48.52,12.91-72.78Z"/>
  <path class="cls-3" d="M843.31,146.21c4.3-24.24,8.59-48.43,12.89-72.72h23.04c-4.3,24.23-8.59,48.4-12.89,72.72h-23.04Z"/>
  <path class="cls-3" d="M431.51,73.48h23.04c-4.32,24.32-8.6,48.51-12.91,72.78h-23.04c4.31-24.31,8.6-48.53,12.91-72.78Z"/>
  <path class="cls-9" d="M819.96,122.93c-.19.89-.38,1.79-.56,2.67-.15-.02-.3-.05-.45-.07.07-.89.12-1.79.19-2.68.27.03.55.06.82.07Z"/>
  <path class="cls-6" d="M163.44,96.6c-1.34,10.52-4.85,20.3-10.19,29.44-.18.32-.29.68-.44,1.03-.32-.06-.71.06-1.03,0,0-.02.09-.21.1-.22,2.54-5.4,4.1-11.12,4.72-17,.57-5.6.24-11.25-1.03-16.78-2.44-10.55-7.55-19.58-15.51-26.95-6.2-5.74-13.52-9.42-21.52-12.07-6.87-2.27-14.19-2.38-21.25-1.74.02-.06-.05-.84,1.11-4.09,2.94-8.25,7.51-12.94,13.57-17.44,1.25-.93,2.61-1.74,4-2.53,2.64.92,4.85,2.6,7.12,4.16,11.38,7.82,20.91,17.47,28.67,28.85,4.69,6.88,8.58,14.18,11.68,21.9.01.03.03.07.04.1.19.5.26,1.01.39,1.52,1.04,3.99.08,7.92-.42,11.85v-.02Z"/>
  <path class="cls-13" d="M196.43,60.25c-3.25-5.74-2.65-2.95-3.77-5.42-.95-2.12-.26-1.29-.95-2.12"/>
  <path class="cls-10" d="M121.68,2.48s-7.54.78-7.54.79l10.35.8s-14.64-.61-14.65-.6c-1.46.55-1.42,1.26-2.85,1.12-2.38-.22-4.11-.05-12.28,3.05-9.35,3.55-16.55,9.68-21.48,18.31-3.47,6.09-5.26,12.7-5.36,19.73-.06,3.79-.02,7.59.12,11.37,0,.08-.24.21-.49.33-.25.12-.52.22-.53.22-.33.14-.82.33-1.46.55-.15.05-.38.19-.53.18-.05,0-.08-.02-.11-.06-.66-1.04-.68-1.13-.94-2.46-.45-2.3-.73-3.92-.84-4.86-.87-7.38.3-14.58,2.13-21.71.06-.21.11-.43.18-.64.2-.73-.79-1.18-1.2-.53-1.61,2.57-2.97,5.27-4.23,8.04-.31.69-.47,1.48-1.19,1.91-.05.03-.09.06-.12.1,0,0,0,0-.02.02-.04.04-.07.09-.09.13-2.38,4.47-3.72,9.31-5.13,14.13-1.46,4.97-2.4,10.06-3.17,15.18,0,.09-.04.16-.09.24-.06.1-.15.17-.24.23-2.77,1.56-4.89,3.9-7.12,6.09-2.58,2.54-4.94,5.26-7.11,8.15-.73.97-1.43,1.94-2.11,2.95-.71,1.05-1.09,2.22-1.68,3.29,0,0,0,.02-.02.04,0,0,0,.02,0,.02-1.09,2.72-2.54,5.27-3.82,7.9-2.09,4.27-3.71,8.68-4.91,13.21-.97,3.68-1.66,7.42-2.08,11.23-1.8,16.14,1.18,31.44,8.91,45.73,5.21,9.64,12.07,17.93,20.91,24.61,6.53,4.93,13.52,8.9,21.19,11.74.61.22,1.42.31,1.35,1.28l-2.39-.68c-3.02-1.04-5.99-2.2-8.88-3.46-11.74-5.13-22.29-12.09-31.43-21.33-13.4-13.55-22.47-29.55-27.15-48.01-.57-2.26-1.26-4.48-1.46-6.86-.21-2.57-.23-5.35-.2-8.03.07-9.15,1.67-18.05,4.16-26.81,3.84-13.52,10.13-25.87,18.36-37.24,6.31-8.73,13.66-16.5,22.05-23.31,13.87-11.26,29.54-18.98,46.76-23.64,5.65-1.53,11.44-2.46,17.24-3.2,1.17-.15,1.42-.38,1.91-.55.29-.1.67-.18,1.36-.21,1.59-.08,3.95.18,6.25.51.72.11,1.46.21,2.14.33,1.34.23,2.56.45,3.48.69"/>
  <path class="cls-5" d="M124.66,2.13c-1.67.23-2.81-.18-9.49,0-2.3.07-5.74-.02-9.03.19-4.09.26-7.28.7-10.38,1.39-2.76.8-5.11,1.32-7.07,1.9-11.67,3.48-22.08,8.79-32.48,15.59-13.36,8.73-24.47,19.73-33.54,32.81-9.45,13.61-15.85,28.55-19.02,44.79-1.43,7.35-1.91,10.85-2.14,17.67.03.73,0,3.69.21,6.86-2.83-15.87-2.27-31.62,2.29-47.09C12.33,48.17,29.35,26.97,55.16,12.96,73.74,2.87,94.08-1.75,115.01.6c1.88.21,6.19.72,9.65,1.54h0Z"/>
  <path class="cls-13" d="M198.05,67.93c-.86-1.82,5.21,8.99,4.89,16.96.49,7.95-.71,15.47-4.18,22.6-2.66,5.47-6.26,10.25-10.96,14.25-7.35,6.25-15.89,9.43-25.34,10.66-4.7.61-9.38.18-14.08.29.6-.99,4.74-7.8,4.74-7.8,0,0,6.71-13.92,8.42-20.9,1.58-6.47,2.75-13.05,2.12-19.79-.15-7.48-1.49-14.77-3.76-21.88-2.82-8.77-7.09-16.78-12.8-24.04-3.95-5.02-8.01-9.93-13.19-13.77-.43-.32-1.94-.75-4.52-1.27,2.38-.65,4.05-.68,7-.63,14.49-.31,25.8,3.84,36.97,12.85,9.14,7.38,16.04,16.61,21.74,26.77.4.7.7,1.47,1.18,2.12.49.67,1.35,2.9,1.77,3.59"/>
  <path class="cls-1" d="M163.29,86.61c-.25-3.5-1.42-5.25-2.15-6.9-9.8-21.88-24.62-39.32-45.34-51.5-.21-.13-.39-.3-.58-.45,4.43-2.72,9.3-4.15,14.4-4.89.86-.13,1.73-.19,2.6-.28,1.39,1.06,3.04,2.88,4.6,4.25,2.74,2.4,5.11,5.07,7.4,7.89,4.52,5.56,8.59,11.4,11.64,17.91,3.4,7.25,5.77,14.8,6.84,22.75.37,2.72.38,2.72.67,5.44.04.34,0,5.42-.09,5.78h0Z"/>
  <path class="cls-8" d="M35.47,81.91c-3.6,4.4-5.07,7.19-5.07,7.19-1.74,2.8-6.91,14.64-7.23,17.57-1.65,5.47-2.7,11.12-3.13,16.96-.77,10.46.48,20.73,3.95,30.68,7.21,20.58,19.06,35.81,37.87,45.5,1.54.79,3.13,1.55,4.77,2.27l6.44,2.29c6.48,2.4,16.79,4.3,23.69,4.54,4.58.16,9.18-.07,13.76.06,6.52.17,12.83-1.2,19.08-2.62,7.07-1.62,13.94-4.04,20.48-7.25,3.96-1.96,7.97-3.85,11.54-6.52.23-.14,1.19-.85,1.19-.85,5.86-3.85,13.09-9.6,17.71-14.71,3.08-3.39,5.86-7.05,8.9-10.46,4.33-4.86,7.34-10.56,10.26-16.25,3.31-6.44,5.88-13.23,7.61-20.29.79-3.19,1.56-6.36,2.01-9.61v-.06c.15-1.1.26-2.22.32-3.33-.44,1.09-.73,2.21-1,3.34-4.32,17.9-13.44,32.97-27.01,45.42-.55.51-1.12,1.02-1.68,1.5-1.31,1.14-2.66,2.25-4.03,3.3h-.01c-7.09,5.46-14.91,9.69-23.38,12.82-.46.17-.91.34-1.37.49-16.58,5.86-33.46,6.77-50.59,2.77-11.1-2.59-21.39-6.99-30.72-13.62-6.25-4.44-11.99-9.41-17.03-15.2-1.43-1.64-2.7-3.37-3.98-5.09-4.59-6.71-8.24-14.08-10.95-22.08-3.64-10.78-5.31-21.81-4.57-33.21.34-5.26,1.02-10.43,2.15-15.54"/>
  <path class="cls-13" d="M197.66,68.11c-.09-.05-4.58.52-12.31-18.36-1.73-1.14-4.43-1.6-5.61-3.22-10.19-14.03-16.24-27.4-31.93-35.11-4.8-2.36-9.99-3.66-15.11-5.15-2.66-.78-5.39-1.21-8.09-1.78l-1.21-.56c.08-.13-11.73-.83-11.54-1.01,1.37-.48,4.32-.79,6.24-.92.17,0,2.54-.12,2.82-.12,1.72,0,1.97.09,3.76.24,4.7.42,13.09,3.54,16.86,4.93,7.71,2.87,15.03,6.6,21.82,11.27,8.33,5.73,15.75,12.41,22.2,20.23,5.14,6.24,9.53,12.94,13.11,20.13,4.93,9.9,8.18,20.36,9.81,31.32,1.16,7.81,1.34,15.67,1.05,23.52-.09,2.36-.31,4.7-.7,7.01-.47,2.75-1.17,5.48-2.18,8.12-.49,1.27-.81,2.61-1.21,3.91-2.91,9.83-8.33,18.17-15.2,25.66-4.55,4.95-9.5,9.14-14.84,12.58h0c-9.05,5.82-19.23,9.52-30.44,11.18-6.09.9-12.26.76-18.43.27-6.57-.52-13.03-1.56-19.13-4.01-3.25-1.31-3.6-1.16-6.88-3.01-8.94-4.24-16.48-10.12-23.34-17.21-8.59-8.89-15.44-19.02-20.29-30.34-3.52-8.22-5.56-16.96-7-25.8-1.84-11.26-2.38-23.12-.81-34.44.35-2.66.23-1.94.35-2.66,1.39-8.8,3.34-16.71,6.75-24.96.33-.79,3.64-7.5,5.41-10.15.04.02-3.75,8.14-3.71,8.15,0,0-.06.15-.04.16,0,0-.71,4.88-.81,5.86-.41,4.18-.02,4.94.15,9.18.17,4.7.89,9.32,1.97,13.92,1.75,7.45,4.77,14.39,8.64,20.95,3.51,5.95,7.61,11.47,12.31,16.57,4.7,5.1,9.78,9.75,15.35,13.84,5.87,4.32,12.17,8,18.71,11.24,6.84,3.39,13.98,5.98,21.36,7.85,4.36,1.11,8.85,1.67,13.37,2.08,4.75.45,9.46.17,14.07-.57,9.21-1.49,17.86-4.51,25.11-10.78,6.5-5.63,10.81-12.56,13.26-20.77,2.77-9.29.74-24.51-1.43-33.83"/>
  <path class="cls-12" d="M197.38,67.78c-1.46-3.04-5.48-10.8-7.11-13.76-1.96-3.54-4.73-7.43-7.36-10.43-5.82-6.64-11.97-12.97-19.17-18.2-8.31-6.04-17.47-10.12-27.71-11.46-9.88-1.29-19.65-.65-28.67,3.86-11.29,5.64-18.52,14.69-21.2,27.13-2.61,12.11.27,23.42,5.15,34.4,3.96,8.9,9.57,16.71,16.48,23.56,9.91,9.82,21.41,17.08,34.97,20.87.59.17.72.07,1.98.41.28.08.62.17,1.03.29l5.47,1.58h1.03c.36.1.73.17,1.1.24h.03c3.3.59,9.1.84,12.41.91,0,0,.12.31-4.13,1.7-3.19,1.04-7.31.93-12,1.04-.14,0-.27-.01-.41-.02-6.03-.29-11.97-1.08-17.78-2.77-11.13-3.24-21.09-8.68-30.18-15.74-10.2-7.92-18.8-17.28-25.34-28.43-4.4-7.5-7.64-15.47-9.12-24.09-.12-.68,0,0-.27-2.02v-.05c-.81-7.15-.67-14.29,1.18-21.32,3.37-12.82,11.18-22.15,23.16-27.71,10.31-4.79,21.27-5.94,32.53-4.15,0,0,.76.15.77.15,1.37.2,5.3,1.01,8.28,1.84,2.82.77,13.45,3.93,21.54,8.81,7.71,4.64,15.87,10.51,22.68,18.19,4.19,4.72,9.83,13.2,9.83,13.2,1.86,2.94,3.77,6.24,5.35,9.45,3.25,6.59,5.46,12.54,5.46,12.54"/>
  <path class="cls-4" d="M201.29,76.41c1.57,4.94,2.23,14.64-.59,24.25-4.09,13.98-13.09,23.62-26.69,28.91-8.21,3.2-16.81,3.45-25.47,3.1-.67-.04-2.49-.2-3.55-.34-11.69-1.31-22.51-5.27-32.66-11.05-10.85-6.18-20.4-13.95-28.36-23.6-9.14-11.07-16.62-24.79-19.56-38.94l-1.35-5.76c-.71-7.59-.26-15.08,1.58-22.49.66-2.66,1.58-5.23,2.25-7.91-3.98,4.54-7.15,10.57-8.61,14.58-2.27,7.14-1.47,15.65-1.47,15.65,0,0-.23,9.42,2.85,17.64.94,2.75,2,5.5,3.08,8.22,2.61,6.55,6.26,12.47,10.38,18.08,3.8,5.17,8.13,9.94,12.93,14.31,4.69,4.27,9.67,8.09,14.94,11.58,4.86,3.22,9.95,6.06,15.24,8.47,7.24,3.3,14.73,5.88,22.59,7.52,4.76.99,9.53,1.54,14.3,1.62,6.49.11,12.9-.82,19.14-2.86,6.94-2.27,13.33-5.45,18.5-10.66,4.52-4.56,8.02-9.78,10.17-15.93,1.09-3.12,2.17-6.22,2.62-9.43,1.74-12.39-2.26-25-2.26-25v.02Z"/>
  <path class="cls-2" d="M97.2,52.09c1.88-9.17,7.19-16.26,14.59-21.5,1.17-.87,2.43-1.69,3.78-2.42,0,0,.02,0,.03-.02.06-.03.12-.06.18-.1,4.31-2.34,10.57-4.43,15.56-5.08,11.36-.79,22.78,1.65,32.61,7.26,11.89,6.79,20.49,16.84,27.56,28.34,1.96,3.2,4.67,7.45,5.89,9.69l-3.17-7.45c-2.49-5.68-2.39-5.74-5.61-10.77-3.26-5.09-9.07-10.81-14.1-15.78-6.59-6.52-13.85-12.04-22.3-15.93-6.95-3.19-14.26-4.8-21.86-5.12-3.56-.16-7.09.21-10.62.71-11.06,1.55-19.99,6.74-26.71,15.65-6.23,8.28-8.59,17.66-7.88,27.98.53,7.72,2.64,14.97,5.73,21.98,5.69,12.91,14.48,23.46,25.53,32.04,8.16,6.33,17.68,11.54,27.74,14.11,5.99,1.53,8.14,1.92,11.91,2.25,2.4.2,4.24.14,8.16-.08-10.96-.76-12.7-1.33-12.75-1.34-2.03-.5-4.33-1.11-6.89-1.84-19.56-5.56-33.31-19.96-42.17-38.47-4.35-9.07-6.72-18.6-5.89-28.75,0,0,.22-2.76.72-5.37v.02Z"/>
</svg>